PathFileType	4	(X/Y/Z)	C:/Users/beibeiliu/ov580/test_trc\sequence.8_training_dense_right.trc
DataRate	CameraRate	NumFrames	NumMarkers	Units	OrigDataRate	OrigDataStartFrame	OrigNumFrames
120	120	23	19	mm	120	1	83
Frame#	Time	ThumbCMC			ThumbMCP			ThumbIP			ThumbTip			IndexMCP			IndexPIP			IndexTip			MiddleMCP			MiddlePIP			MiddleTip			RingMCP			RingPIP			RingTip			PinkyMCP			PinkyPIP			PinkyTip			BackHand1			BackHand2			BackHand3	
		X0	Y0	Z0	X1	Y1	Z1	X2	Y2	Z2	X3	Y3	Z3	X4	Y4	Z4	X5	Y5	Z5	X6	Y6	Z6	X7	Y7	Z7	X8	Y8	Z8	X9	Y9	Z9	X10	Y10	Z10	X11	Y11	Z11	X12	Y12	Z12	X13	Y13	Z13	X14	Y14	Z14	X15	Y15	Z15	X16	Y16	Z16	X17	Y17	Z17	X18	Y18	Z18	
0	0	42.6415	21.3107	48.7665	21.3274	4.6316	30.6374	14.3791	-3.98483	8.36492	10.4969	-12.1229	-9.84766	34.6166	26.0921	-18.9602	27.9896	11.0429	-41.5896	20.0806	-3.04963	-54.9855	57.8621	24.7916	-29.0329	49.8773	13.0189	-50.3945	49.2417	-5.00624	-71.5535	75.4414	19.8273	-26.0882	72.2546	8.53989	-47.192	70.8979	-4.85337	-65.6857	94.7898	16.9519	-16.423	97.5331	8.93202	-34.3343	100.017	1.45208	-50.0967	81.999	37.9536	17.5235	85.6905	44.3405	44.4192	58.8878	43.5649	35.7155	
1	0.00833333	40.3345	23.6302	43.6204	26.2031	7.54111	30.6155	16.7834	-1.63442	6.30802	9.13069	-12.4075	-8.10918	35.9413	27.7023	-19.2708	26.7802	14.8978	-41.8433	24.2671	-2.93436	-58.3877	55.814	27.0366	-27.7448	49.9081	12.7119	-53.9832	49.457	-4.50101	-73.3015	73.8945	21.6758	-28.1713	78.0027	10.9762	-45.4434	70.1506	-3.12746	-65.1946	95.1026	17.8916	-15.5182	98.693	9.47124	-35.4056	96.2419	0.787392	-52.8224	82.8403	38.8067	17.3646	86.9432	44.7869	43.5588	58.816	46.6035	32.0703	
2	0.0166667	40.3707	24.6809	48.5339	26.7317	8.15404	27.6705	15.935	-1.55453	6.97703	12.4927	-10.4161	-9.99092	36.6931	28.4367	-20.2454	27.2977	17.6782	-38.8521	25.6701	0.909709	-56.8973	55.3349	26.3339	-32.9246	50.0156	13.9015	-53.9668	49.7656	-5.31147	-74.1469	77.1951	22.5748	-27.4602	74.0692	12.5075	-45.2506	70.9623	-2.55635	-64.0955	95.4678	19.2896	-17.5933	98.7127	10.0169	-32.908	97.5477	3.4083	-49.7468	83.8724	39.7665	15.6152	89.8302	46.2706	39.6755	61.576	48.1477	32.561	
3	0.025	39.0795	23.8079	46.1036	24.822	6.82622	30.9333	16.7327	-2.1831	5.98245	10.7445	-12.9488	-10.2352	34.7146	27.8027	-17.934	26.9675	13.2799	-41.6587	26.7829	-1.57306	-57.9198	59.2959	25.8847	-31.3747	53.477	11.6591	-54.9815	52.3006	-6.03486	-72.3063	75.1607	22.6359	-28.9794	74.4558	10.2716	-49.1192	69.4315	-3.78494	-64.1142	95.256	18.9495	-16.2816	97.4634	10.7617	-31.1021	98.5493	0.811861	-52.9449	80.8815	41.269	15.9076	88.6984	44.3167	42.6911	56.9165	46.3946	30.0226	
4	0.0333333	38.4394	23.5685	46.0925	26.3138	7.18204	30.7354	16.2983	-1.29684	8.50635	10.3913	-11.072	-9.52081	35.8594	25.3711	-20.9146	27.3638	14.4646	-38.6589	27.4577	-2.3989	-56.3687	55.4083	26.0722	-26.7308	51.5463	10.2793	-53.3612	49.6641	-4.62862	-70.7608	75.5732	21.4551	-23.1122	71.8612	8.87932	-48.1403	69.9422	-4.49577	-65.3848	97.1803	17.7703	-12.9098	98.2631	9.33073	-35.0057	99.2699	0.231355	-52.1225	82.3951	39.5869	19.5427	91.7601	45.4629	42.2816	63.2059	45.267	33.301	
5	0.0416667	40.1866	24.3261	45.8994	28.0203	11.265	30.7539	17.2715	4.49829	13.3519	7.26059	-1.97668	-4.16532	34.3445	25.377	-18.1211	31.903	13.7898	-40.7302	21.0737	-1.37009	-58.1893	58.9897	25.2735	-26.9061	55.5415	13.5019	-50.9626	50.2388	-1.07414	-69.9956	75.5361	20.8408	-25.9979	77.3416	11.4114	-45.7395	70.7573	-0.333261	-62.0703	99.8579	16.1663	-15.6121	98.7484	11.02	-30.7791	104.605	3.37462	-53.0496	87.2151	37.1535	16.4906	89.8138	43.0693	40.5611	63.4419	44.3197	29.9082	
6	0.05	42.8258	27.2728	46.1069	23.3553	19.4217	33.2156	8.64112	16.3339	12.9904	-2.54033	11.4542	0.0855961	36.3938	27.5673	-19.6025	27.0104	18.0589	-41.0573	26.0102	5.92509	-60.4426	57.5363	27.3162	-28.5048	54.8285	17.2338	-51.3476	52.3762	5.23444	-74.2233	81.7682	22.1171	-26.5083	81.4078	14.1715	-46.243	78.4716	5.5371	-64.5715	99.0349	17	-12.4504	106.245	9.7477	-31.2494	110.796	6.19238	-51.676	85.147	38.8256	19.486	88.6431	43.1819	42.9516	62.3165	44.7715	30.3431	
7	0.0583333	43.223	31.1251	49.3145	24.2359	26.7066	32.8496	8.86612	26.3351	15.5016	-5.99403	25.899	2.42784	35.8508	30.9985	-21.1434	30.4875	21.1357	-44.4919	22.8569	12.8595	-64.6924	62.1106	28.2029	-31.6302	58.2442	21.4407	-54.0799	59.0453	13.798	-81.0424	85.7761	22.5158	-27.4001	87.4485	17.2476	-47.5088	82.8858	13.8094	-65.5845	102.234	17.8647	-10.8049	107.414	12.8338	-27.1504	118.826	12.1868	-45.7109	85.591	40.2066	14.2132	91.0001	45.1237	43.5067	62.3379	47.7135	31.8826	
8	0.0666667	47.6094	33.0453	42.3788	26.7556	29.9439	32.6852	12.8607	30.3322	17.0922	-3.96881	31.2705	7.40288	41.2807	30.2092	-24.2078	33.1217	24.6509	-44.3283	28.7464	18.7982	-62.5635	67.8854	30.1232	-31.5866	64.9128	24.3708	-57.3588	64.1818	22.6301	-76.039	87.7584	25.7497	-23.7012	90.7127	20.9926	-44.4375	93.475	19.4144	-68.0888	108.764	18.4556	-11.4741	113.557	13.9818	-28.4538	126.413	14.0241	-39.3754	93.1726	40.2465	14.4129	95.9767	45.1988	39.0992	68.543	47.103	30.3373	
9	0.075	49.3832	33.2429	46.007	29.9352	28.8084	30.9003	15.0642	30.8368	16.99	-1.39868	33.7501	7.10432	49.0832	28.7219	-26.0385	38.8392	23.8614	-41.8067	33.9477	20.0827	-66.4594	70.9781	30.3668	-34.2683	72.2613	26.8111	-57.1946	72.1604	28.8714	-76.437	94.9943	24.7332	-23.129	97.209	21.9672	-43.4529	100.873	22.9858	-64.7407	116.567	16.8597	-9.56867	121.257	13.9094	-25.3013	130.197	18.2518	-38.9747	92.343	36.99	17.5414	98.7316	43.3566	38.0231	74.0287	47.0773	29.3452	
10	0.0833333	55.4761	30.1031	41.6695	32.407	27.9603	28.6388	16.1208	28.5017	15.5444	2.64121	30.7065	5.23508	54.4672	26.7472	-22.4013	45.6983	22.8651	-46.4482	46.1901	22.9622	-65.1281	80.7955	27.8482	-32.5954	83.387	27.9531	-51.9369	84.2093	32.3646	-74.6572	103.923	22.5304	-24.9408	106.903	21.7685	-41.6468	110.938	24.6877	-61.1828	123.212	14.4367	-7.04343	128.12	13.0313	-22.5607	140.389	19.6201	-37.3222	97.468	35.0111	19.8265	101.439	43.5993	42.5691	76.8638	41.9079	29.8468	
11	0.0916667	57.1421	26.359	45.6601	41.0997	22.226	28.1517	20.2685	25.1747	10.8651	4.19326	28.6024	4.58058	57.3701	23.5985	-24.5113	53.9447	22.2192	-46.3627	49.7085	23.8359	-67.501	83.2065	26.2744	-28.5186	87.5632	28.5035	-52.1683	87.4912	35.6673	-72.8247	108.06	21.5748	-22.6496	113.711	20.8699	-39.5445	117.1	25.7042	-61.3547	124.827	14.1839	-10.1865	136.08	13.3063	-22.1314	147.091	18.0822	-32.7232	103.024	31.8303	15.3163	103.422	40.0739	41.7064	75.763	38.7164	25.8572	
12	0.1	55.887	26.5928	43.8031	40.8728	21.4372	27.3535	24.1206	22.1034	14.286	8.72741	25.4778	5.97144	58.3811	23.6948	-27.076	56.6271	21.4748	-46.6981	49.9711	23.1178	-63.3311	85.2187	26.4889	-33.5572	91.9072	27.6529	-54.5368	93.3731	35.1717	-72.7169	108.988	20.5404	-24.0413	118.054	21.0695	-42.0184	118.12	26.3912	-60.4326	128.838	13.9919	-7.94763	135.772	12.659	-21.2011	146.789	18.2264	-33.4445	102.577	33.3213	15.8916	104.078	38.8084	40.4846	77.543	40.6703	28.172	
13	0.108333	60.6737	25.7951	39.3459	40.7591	21.0914	25.5596	26.3167	22.4716	10.452	10.4962	23.8958	4.94138	64.7614	23.9551	-25.8039	60.2901	23.6397	-47.7722	53.3817	26.9508	-70.2026	92.0289	27.8951	-29.3616	93.4859	30.0155	-50.9596	96.767	39.9291	-74.9772	114.012	22.5752	-24.5856	114.161	23.0806	-41.6702	121.825	27.6599	-57.0492	130.401	15.9951	-4.10299	140.716	15.3053	-20.8562	146.695	21.1334	-31.2021	103.453	34.0362	18.6772	105.07	40.4631	38.9417	77.8018	41.5538	27.4646	
14	0.116667	61.0125	27.6616	36.8191	41.7887	22.3966	24.5667	29.4239	22.903	6.651	11.6438	25.8686	-4.06261	67.2481	29.4214	-31.3242	66.6694	27.9277	-52.8008	60.2584	30.3495	-70.619	92.6703	33.734	-32.5322	99.4039	36.7701	-51.4518	101.254	46.1459	-75.7337	119.32	29.9967	-22.6325	124.219	33.1149	-43.768	128.539	37.9991	-62.0073	133.856	23.4828	-4.5077	145.957	24.6519	-14.9366	156.557	33.0088	-30.4025	109.585	38.8796	17.295	104.326	46.2119	40.788	80.9464	42.5904	22.8614	
15	0.125	64.731	31.6151	32.0468	52.1789	22.4523	16.9932	38.3038	21.4448	0.463947	25.5372	20.852	-10.1021	78.4184	30.6305	-33.7362	77.6842	26.9975	-56.0285	74.6835	28.16	-74.8839	105.515	37.5711	-35.7746	108.399	39.3751	-57.5008	113.008	45.7968	-76.6246	125.432	37.3751	-23.5859	137.541	39.4076	-36.9144	144.198	43.0683	-58.4721	143.839	33.5016	-1.4619	156.163	34.119	-12.1325	167.367	41.4554	-25.6456	116.278	48.1246	18.5483	111.445	54.9492	38.5323	86.1129	48.377	23.7871	
16	0.133333	74.2483	37.9694	30.0828	57.2427	28.0376	13.1416	48.7237	22.8744	-7.62966	33.7666	21.3432	-17.5422	89.1312	19.2675	-35.0959	87.6662	10.1117	-52.8641	91.2277	5.3167	-74.7306	114.967	24.9126	-32.8377	120.637	18.0908	-53.2765	131.865	17.4811	-73.6036	134.36	25.8547	-17.5161	147.133	21.22	-37.9565	155.132	20.4544	-56.7049	150.814	26.6503	4.34129	165.615	21.8897	-10.6553	178.305	25.7226	-22.4406	122.547	47.8545	16.3139	117.979	60.4035	37.1146	95.2554	51.5767	19.8358	
17	0.141667	79.3197	47.3356	25.0236	65.405	34.0362	10.1099	51.3358	29.3878	-3.90069	40.3667	26.7056	-14.9825	95.9489	6.58148	-29.5267	93.5722	-7.80877	-43.2672	92.2659	-20.0278	-58.8201	122.698	5.0525	-28.1651	126.321	-8.43635	-45.6957	130.225	-16.7678	-64.971	138.993	8.21792	-14.8572	152.101	-4.49592	-29.3713	154.846	-11.3838	-44.6107	155.191	10.9692	5.7488	167.851	1.54482	-2.74739	181.133	1.56248	-10.6271	132.767	42.3379	15.2072	128.315	61.4947	33.5145	102.554	52.6381	14.7213	
18	0.15	86.8408	57.1478	25.2053	70.4761	42.8531	10.4135	55.4845	37.3332	-1.81431	42.7607	34.2804	-14.4579	92.0549	1.13156	-19.4115	88.5455	-17.3071	-28.2159	85.4181	-38.8052	-41.4089	116.998	-9.1972	-19.7086	119.689	-25.5745	-27.1099	124.004	-45.6574	-44.2097	139.571	-5.70249	-1.50496	141.308	-22.3316	-13.956	144.261	-38.8146	-28.9859	151.248	-0.916056	15.5974	159.685	-18.0631	5.18046	169.333	-24.8689	-0.912048	135.353	33.6159	14.2219	135.605	54.5628	29.7601	115.284	50.0753	12.2549	
19	0.158333	95.1628	59.5712	22.6771	77.1057	47.9522	11.714	62.0241	42.5829	1.47453	46.0896	40.8222	-10.9795	88.0321	1.03273	-9.99422	77.629	-20.1597	-16.4853	67.244	-38.4252	-21.4742	110.685	-17.4637	-7.74315	103.297	-36.3419	-14.5436	98.9269	-58.2631	-25.8819	127.219	-18.5385	3.08108	121.728	-34.9724	-5.54492	119.228	-55.2372	-15.4596	140.957	-9.82709	20.9567	144.049	-28.0039	13.8544	147.426	-42.9914	0.123382	136.375	25.379	14.9062	144.506	46.4146	26.7436	122.023	48.4819	13.5008	
20	0.166667	102.765	61.2108	25.6531	82.1616	59.2925	17.499	61.5373	55.7891	3.58989	49.7485	49.0087	-6.40397	80.7348	2.56959	-1.4536	62.6081	-12.0794	-4.63411	48.4782	-29.8564	-4.11787	92.7521	-10.3744	1.54856	81.4253	-29.8449	-0.364627	64.4884	-52.2523	-7.51607	108.237	-19.1304	11.4889	96.4964	-36.5096	6.94558	90.9655	-53.1275	3.97158	130.106	-18.3069	27.8941	124.986	-33.0552	24.234	123.007	-50.7054	14.8879	138.936	21.3131	21.8873	149.836	41.1442	29.1428	118.748	45.1849	12.1874	
21	0.175	108.876	68.3636	26.0545	86.1301	66.9948	17.9465	66.6404	70.1479	5.11008	54.3504	70.9323	-1.40878	64.4408	15.8518	5.39182	47.8353	8.17354	5.3094	24.2876	-7.5861	10.5996	72.7901	-1.5148	11.3865	51.4628	-12.5316	11.5322	34.0637	-29.3682	11.0886	87.6137	-14.6703	21.8417	73.361	-23.8225	21.978	58.2007	-38.5687	19.6765	106.815	-19.0737	34.5196	95.2129	-29.9865	33.2862	87.1441	-45.4309	27.6824	127.825	21.587	22.7107	145.866	34.4551	30.7088	123.575	44.4997	16.3557	
22	0.183333	116.677	70.0885	27.838	97.7203	78.6396	20.8952	76.5835	83.9574	4.90941	63.9982	91.2545	-3.32314	53.5344	39.5387	11.8804	32.0939	36.2972	16.4935	10.7999	31.2755	21.5349	59.4934	17.0374	21.5521	34.9929	12.2792	24.5308	7.81658	5.45256	26.1046	69.7637	1.60617	32.6223	48.2542	-3.20969	33.3615	29.0151	-12.8796	35.7146	81.1064	-7.68179	43.3922	70.1849	-17.6199	48.8313	53.1681	-28.2659	43.8585	111.708	18.0901	24.9723	138.846	28.9317	33.147	116.215	43.148	18.5961	
